<svg width="100%" viewBox="0 0 840 300" xmlns="http://www.w3.org/2000/svg">
<defs>
<linearGradient id="brick" x1="0" y1="0" x2="0" y2="1">
<stop offset="0%" stop-color="#f5c4a0"/>
<stop offset="30%" stop-color="#f0b48e"/>
<stop offset="70%" stop-color="#e8a47c"/>
<stop offset="100%" stop-color="#de9468"/>
</linearGradient>
<linearGradient id="brickDark" x1="0" y1="0" x2="0" y2="1">
<stop offset="0%" stop-color="#d4956a"/>
<stop offset="100%" stop-color="#c08050"/>
</linearGradient>
</defs>

<!-- Transparent background -->

<!-- Robot on the left, scaled down -->
<g transform="translate(-19.9, 25.5) scale(0.47)">


<rect x="150" y="60" width="50" height="55" fill="#F5D76E"/>
<rect x="200" y="40" width="50" height="65" fill="#F0C040"/>
<rect x="250" y="30" width="50" height="55" fill="#F5D76E"/>
<rect x="110" y="105" width="50" height="65" fill="#F0C040"/>
<rect x="160" y="90" width="50" height="75" fill="#F5D76E"/>

<rect x="480" y="60" width="50" height="55" fill="#F5D76E"/>
<rect x="430" y="40" width="50" height="65" fill="#F0C040"/>
<rect x="380" y="30" width="50" height="55" fill="#F5D76E"/>
<rect x="520" y="105" width="50" height="65" fill="#F0C040"/>
<rect x="470" y="90" width="50" height="75" fill="#F5D76E"/>

<rect x="250" y="45" width="180" height="30" fill="#F5D76E"/>
<rect x="210" y="70" width="260" height="25" fill="#F0C040"/>

<rect x="160" y="95" width="360" height="25" fill="#F5D76E"/>

<rect x="160" y="120" width="360" height="200" fill="#F4A683"/>

<rect x="110" y="155" width="50" height="130" fill="#F5D76E"/>
<rect x="520" y="155" width="50" height="130" fill="#F5D76E"/>
<rect x="95" y="145" width="20" height="90" fill="#F5D76E"/>
<rect x="565" y="145" width="20" height="90" fill="#F5D76E"/>
<rect x="85" y="225" width="35" height="35" fill="#F0C040"/>
<rect x="560" y="225" width="35" height="35" fill="#F0C040"/>

<rect x="160" y="120" width="360" height="25" fill="#F0C040" opacity="0.4"/>

<rect x="230" y="185" width="35" height="35" fill="#1a1a1a"/>
<rect x="415" y="185" width="35" height="35" fill="#1a1a1a"/>

<ellipse cx="248" cy="240" rx="16" ry="10" fill="#E8836A" opacity="0.45"/>
<ellipse cx="432" cy="240" rx="16" ry="10" fill="#E8836A" opacity="0.45"/>

<rect x="295" y="255" width="90" height="8" rx="0" fill="#D4715E"/>
<rect x="285" y="255" width="10" height="8" rx="0" fill="#D4715E"/>
<rect x="385" y="255" width="10" height="8" rx="0" fill="#D4715E"/>
<rect x="280" y="247" width="10" height="10" rx="0" fill="#D4715E"/>
<rect x="390" y="247" width="10" height="10" rx="0" fill="#D4715E"/>

<rect x="160" y="320" width="360" height="180" fill="#E8967A"/>

<rect x="160" y="320" width="360" height="10" fill="#E0856A" opacity="0.35"/>

<rect x="160" y="500" width="120" height="60" fill="#F4A683"/>
<rect x="400" y="500" width="120" height="60" fill="#F4A683"/>


</g>

<!-- CLAUDINE pixel text on the right with gradient bricks -->
<g transform="translate(290, 110)" fill="url(#brick)">

<!-- Each letter is on a 7-column x 9-row pixel grid, cell=8px with 1px gap -->
<!-- C -->
<g transform="translate(0, 0)">
<rect x="9" y="0" width="8" height="8" rx="0.5"/><rect x="18" y="0" width="8" height="8" rx="0.5"/><rect x="27" y="0" width="8" height="8" rx="0.5"/><rect x="36" y="0" width="8" height="8" rx="0.5"/>
<rect x="0" y="9" width="8" height="8" rx="0.5"/><rect x="9" y="9" width="8" height="8" rx="0.5"/><rect x="36" y="9" width="8" height="8" rx="0.5"/><rect x="45" y="9" width="8" height="8" rx="0.5"/>
<rect x="0" y="18" width="8" height="8" rx="0.5"/><rect x="9" y="18" width="8" height="8" rx="0.5"/>
<rect x="0" y="27" width="8" height="8" rx="0.5"/><rect x="9" y="27" width="8" height="8" rx="0.5"/>
<rect x="0" y="36" width="8" height="8" rx="0.5"/><rect x="9" y="36" width="8" height="8" rx="0.5"/>
<rect x="0" y="45" width="8" height="8" rx="0.5"/><rect x="9" y="45" width="8" height="8" rx="0.5"/>
<rect x="0" y="54" width="8" height="8" rx="0.5"/><rect x="9" y="54" width="8" height="8" rx="0.5"/>
<rect x="0" y="63" width="8" height="8" rx="0.5"/><rect x="9" y="63" width="8" height="8" rx="0.5"/><rect x="36" y="63" width="8" height="8" rx="0.5"/><rect x="45" y="63" width="8" height="8" rx="0.5"/>
<rect x="9" y="72" width="8" height="8" rx="0.5"/><rect x="18" y="72" width="8" height="8" rx="0.5"/><rect x="27" y="72" width="8" height="8" rx="0.5"/><rect x="36" y="72" width="8" height="8" rx="0.5"/>
</g>

<!-- L -->
<g transform="translate(68, 0)">
<rect x="0" y="0" width="8" height="8" rx="0.5"/><rect x="9" y="0" width="8" height="8" rx="0.5"/>
<rect x="0" y="9" width="8" height="8" rx="0.5"/><rect x="9" y="9" width="8" height="8" rx="0.5"/>
<rect x="0" y="18" width="8" height="8" rx="0.5"/><rect x="9" y="18" width="8" height="8" rx="0.5"/>
<rect x="0" y="27" width="8" height="8" rx="0.5"/><rect x="9" y="27" width="8" height="8" rx="0.5"/>
<rect x="0" y="36" width="8" height="8" rx="0.5"/><rect x="9" y="36" width="8" height="8" rx="0.5"/>
<rect x="0" y="45" width="8" height="8" rx="0.5"/><rect x="9" y="45" width="8" height="8" rx="0.5"/>
<rect x="0" y="54" width="8" height="8" rx="0.5"/><rect x="9" y="54" width="8" height="8" rx="0.5"/>
<rect x="0" y="63" width="8" height="8" rx="0.5"/><rect x="9" y="63" width="8" height="8" rx="0.5"/>
<rect x="0" y="72" width="8" height="8" rx="0.5"/><rect x="9" y="72" width="8" height="8" rx="0.5"/><rect x="18" y="72" width="8" height="8" rx="0.5"/><rect x="27" y="72" width="8" height="8" rx="0.5"/><rect x="36" y="72" width="8" height="8" rx="0.5"/><rect x="45" y="72" width="8" height="8" rx="0.5"/>
</g>

<!-- A -->
<g transform="translate(136, 0)">
<rect x="9" y="0" width="8" height="8" rx="0.5"/><rect x="18" y="0" width="8" height="8" rx="0.5"/><rect x="27" y="0" width="8" height="8" rx="0.5"/><rect x="36" y="0" width="8" height="8" rx="0.5"/>
<rect x="0" y="9" width="8" height="8" rx="0.5"/><rect x="9" y="9" width="8" height="8" rx="0.5"/><rect x="36" y="9" width="8" height="8" rx="0.5"/><rect x="45" y="9" width="8" height="8" rx="0.5"/>
<rect x="0" y="18" width="8" height="8" rx="0.5"/><rect x="9" y="18" width="8" height="8" rx="0.5"/><rect x="36" y="18" width="8" height="8" rx="0.5"/><rect x="45" y="18" width="8" height="8" rx="0.5"/>
<rect x="0" y="27" width="8" height="8" rx="0.5"/><rect x="9" y="27" width="8" height="8" rx="0.5"/><rect x="36" y="27" width="8" height="8" rx="0.5"/><rect x="45" y="27" width="8" height="8" rx="0.5"/>
<rect x="0" y="36" width="8" height="8" rx="0.5"/><rect x="9" y="36" width="8" height="8" rx="0.5"/><rect x="18" y="36" width="8" height="8" rx="0.5"/><rect x="27" y="36" width="8" height="8" rx="0.5"/><rect x="36" y="36" width="8" height="8" rx="0.5"/><rect x="45" y="36" width="8" height="8" rx="0.5"/>
<rect x="0" y="45" width="8" height="8" rx="0.5"/><rect x="9" y="45" width="8" height="8" rx="0.5"/><rect x="36" y="45" width="8" height="8" rx="0.5"/><rect x="45" y="45" width="8" height="8" rx="0.5"/>
<rect x="0" y="54" width="8" height="8" rx="0.5"/><rect x="9" y="54" width="8" height="8" rx="0.5"/><rect x="36" y="54" width="8" height="8" rx="0.5"/><rect x="45" y="54" width="8" height="8" rx="0.5"/>
<rect x="0" y="63" width="8" height="8" rx="0.5"/><rect x="9" y="63" width="8" height="8" rx="0.5"/><rect x="36" y="63" width="8" height="8" rx="0.5"/><rect x="45" y="63" width="8" height="8" rx="0.5"/>
<rect x="0" y="72" width="8" height="8" rx="0.5"/><rect x="9" y="72" width="8" height="8" rx="0.5"/><rect x="36" y="72" width="8" height="8" rx="0.5"/><rect x="45" y="72" width="8" height="8" rx="0.5"/>
</g>

<!-- U -->
<g transform="translate(204, 0)">
<rect x="0" y="0" width="8" height="8" rx="0.5"/><rect x="9" y="0" width="8" height="8" rx="0.5"/><rect x="36" y="0" width="8" height="8" rx="0.5"/><rect x="45" y="0" width="8" height="8" rx="0.5"/>
<rect x="0" y="9" width="8" height="8" rx="0.5"/><rect x="9" y="9" width="8" height="8" rx="0.5"/><rect x="36" y="9" width="8" height="8" rx="0.5"/><rect x="45" y="9" width="8" height="8" rx="0.5"/>
<rect x="0" y="18" width="8" height="8" rx="0.5"/><rect x="9" y="18" width="8" height="8" rx="0.5"/><rect x="36" y="18" width="8" height="8" rx="0.5"/><rect x="45" y="18" width="8" height="8" rx="0.5"/>
<rect x="0" y="27" width="8" height="8" rx="0.5"/><rect x="9" y="27" width="8" height="8" rx="0.5"/><rect x="36" y="27" width="8" height="8" rx="0.5"/><rect x="45" y="27" width="8" height="8" rx="0.5"/>
<rect x="0" y="36" width="8" height="8" rx="0.5"/><rect x="9" y="36" width="8" height="8" rx="0.5"/><rect x="36" y="36" width="8" height="8" rx="0.5"/><rect x="45" y="36" width="8" height="8" rx="0.5"/>
<rect x="0" y="45" width="8" height="8" rx="0.5"/><rect x="9" y="45" width="8" height="8" rx="0.5"/><rect x="36" y="45" width="8" height="8" rx="0.5"/><rect x="45" y="45" width="8" height="8" rx="0.5"/>
<rect x="0" y="54" width="8" height="8" rx="0.5"/><rect x="9" y="54" width="8" height="8" rx="0.5"/><rect x="36" y="54" width="8" height="8" rx="0.5"/><rect x="45" y="54" width="8" height="8" rx="0.5"/>
<rect x="0" y="63" width="8" height="8" rx="0.5"/><rect x="9" y="63" width="8" height="8" rx="0.5"/><rect x="36" y="63" width="8" height="8" rx="0.5"/><rect x="45" y="63" width="8" height="8" rx="0.5"/>
<rect x="9" y="72" width="8" height="8" rx="0.5"/><rect x="18" y="72" width="8" height="8" rx="0.5"/><rect x="27" y="72" width="8" height="8" rx="0.5"/><rect x="36" y="72" width="8" height="8" rx="0.5"/>
</g>

<!-- D -->
<g transform="translate(272, 0)">
<rect x="0" y="0" width="8" height="8" rx="0.5"/><rect x="9" y="0" width="8" height="8" rx="0.5"/><rect x="18" y="0" width="8" height="8" rx="0.5"/><rect x="27" y="0" width="8" height="8" rx="0.5"/>
<rect x="0" y="9" width="8" height="8" rx="0.5"/><rect x="9" y="9" width="8" height="8" rx="0.5"/><rect x="27" y="9" width="8" height="8" rx="0.5"/><rect x="36" y="9" width="8" height="8" rx="0.5"/>
<rect x="0" y="18" width="8" height="8" rx="0.5"/><rect x="9" y="18" width="8" height="8" rx="0.5"/><rect x="36" y="18" width="8" height="8" rx="0.5"/><rect x="45" y="18" width="8" height="8" rx="0.5"/>
<rect x="0" y="27" width="8" height="8" rx="0.5"/><rect x="9" y="27" width="8" height="8" rx="0.5"/><rect x="36" y="27" width="8" height="8" rx="0.5"/><rect x="45" y="27" width="8" height="8" rx="0.5"/>
<rect x="0" y="36" width="8" height="8" rx="0.5"/><rect x="9" y="36" width="8" height="8" rx="0.5"/><rect x="36" y="36" width="8" height="8" rx="0.5"/><rect x="45" y="36" width="8" height="8" rx="0.5"/>
<rect x="0" y="45" width="8" height="8" rx="0.5"/><rect x="9" y="45" width="8" height="8" rx="0.5"/><rect x="36" y="45" width="8" height="8" rx="0.5"/><rect x="45" y="45" width="8" height="8" rx="0.5"/>
<rect x="0" y="54" width="8" height="8" rx="0.5"/><rect x="9" y="54" width="8" height="8" rx="0.5"/><rect x="36" y="54" width="8" height="8" rx="0.5"/><rect x="45" y="54" width="8" height="8" rx="0.5"/>
<rect x="0" y="63" width="8" height="8" rx="0.5"/><rect x="9" y="63" width="8" height="8" rx="0.5"/><rect x="27" y="63" width="8" height="8" rx="0.5"/><rect x="36" y="63" width="8" height="8" rx="0.5"/>
<rect x="0" y="72" width="8" height="8" rx="0.5"/><rect x="9" y="72" width="8" height="8" rx="0.5"/><rect x="18" y="72" width="8" height="8" rx="0.5"/><rect x="27" y="72" width="8" height="8" rx="0.5"/>
</g>

<!-- I -->
<g transform="translate(340, 0)">
<rect x="0" y="0" width="8" height="8" rx="0.5"/><rect x="9" y="0" width="8" height="8" rx="0.5"/><rect x="18" y="0" width="8" height="8" rx="0.5"/><rect x="27" y="0" width="8" height="8" rx="0.5"/><rect x="36" y="0" width="8" height="8" rx="0.5"/>
<rect x="9" y="9" width="8" height="8" rx="0.5"/><rect x="18" y="9" width="8" height="8" rx="0.5"/><rect x="27" y="9" width="8" height="8" rx="0.5"/>
<rect x="13" y="18" width="8" height="8" rx="0.5"/><rect x="22" y="18" width="8" height="8" rx="0.5"/>
<rect x="13" y="27" width="8" height="8" rx="0.5"/><rect x="22" y="27" width="8" height="8" rx="0.5"/>
<rect x="13" y="36" width="8" height="8" rx="0.5"/><rect x="22" y="36" width="8" height="8" rx="0.5"/>
<rect x="13" y="45" width="8" height="8" rx="0.5"/><rect x="22" y="45" width="8" height="8" rx="0.5"/>
<rect x="13" y="54" width="8" height="8" rx="0.5"/><rect x="22" y="54" width="8" height="8" rx="0.5"/>
<rect x="9" y="63" width="8" height="8" rx="0.5"/><rect x="18" y="63" width="8" height="8" rx="0.5"/><rect x="27" y="63" width="8" height="8" rx="0.5"/>
<rect x="0" y="72" width="8" height="8" rx="0.5"/><rect x="9" y="72" width="8" height="8" rx="0.5"/><rect x="18" y="72" width="8" height="8" rx="0.5"/><rect x="27" y="72" width="8" height="8" rx="0.5"/><rect x="36" y="72" width="8" height="8" rx="0.5"/>
</g>

<!-- N -->
<g transform="translate(396, 0)">
<rect x="0" y="0" width="8" height="8" rx="0.5"/><rect x="9" y="0" width="8" height="8" rx="0.5"/><rect x="36" y="0" width="8" height="8" rx="0.5"/><rect x="45" y="0" width="8" height="8" rx="0.5"/>
<rect x="0" y="9" width="8" height="8" rx="0.5"/><rect x="9" y="9" width="8" height="8" rx="0.5"/><rect x="18" y="9" width="8" height="8" rx="0.5"/><rect x="36" y="9" width="8" height="8" rx="0.5"/><rect x="45" y="9" width="8" height="8" rx="0.5"/>
<rect x="0" y="18" width="8" height="8" rx="0.5"/><rect x="9" y="18" width="8" height="8" rx="0.5"/><rect x="18" y="18" width="8" height="8" rx="0.5"/><rect x="36" y="18" width="8" height="8" rx="0.5"/><rect x="45" y="18" width="8" height="8" rx="0.5"/>
<rect x="0" y="27" width="8" height="8" rx="0.5"/><rect x="9" y="27" width="8" height="8" rx="0.5"/><rect x="18" y="27" width="8" height="8" rx="0.5"/><rect x="27" y="27" width="8" height="8" rx="0.5"/><rect x="36" y="27" width="8" height="8" rx="0.5"/><rect x="45" y="27" width="8" height="8" rx="0.5"/>
<rect x="0" y="36" width="8" height="8" rx="0.5"/><rect x="9" y="36" width="8" height="8" rx="0.5"/><rect x="27" y="36" width="8" height="8" rx="0.5"/><rect x="36" y="36" width="8" height="8" rx="0.5"/><rect x="45" y="36" width="8" height="8" rx="0.5"/>
<rect x="0" y="45" width="8" height="8" rx="0.5"/><rect x="9" y="45" width="8" height="8" rx="0.5"/><rect x="27" y="45" width="8" height="8" rx="0.5"/><rect x="36" y="45" width="8" height="8" rx="0.5"/><rect x="45" y="45" width="8" height="8" rx="0.5"/>
<rect x="0" y="54" width="8" height="8" rx="0.5"/><rect x="9" y="54" width="8" height="8" rx="0.5"/><rect x="36" y="54" width="8" height="8" rx="0.5"/><rect x="36" y="54" width="8" height="8" rx="0.5"/><rect x="45" y="54" width="8" height="8" rx="0.5"/>
<rect x="0" y="63" width="8" height="8" rx="0.5"/><rect x="9" y="63" width="8" height="8" rx="0.5"/><rect x="36" y="63" width="8" height="8" rx="0.5"/><rect x="45" y="63" width="8" height="8" rx="0.5"/>
<rect x="0" y="72" width="8" height="8" rx="0.5"/><rect x="9" y="72" width="8" height="8" rx="0.5"/><rect x="36" y="72" width="8" height="8" rx="0.5"/><rect x="45" y="72" width="8" height="8" rx="0.5"/>
</g>

<!-- E -->
<g transform="translate(464, 0)">
<rect x="0" y="0" width="8" height="8" rx="0.5"/><rect x="9" y="0" width="8" height="8" rx="0.5"/><rect x="18" y="0" width="8" height="8" rx="0.5"/><rect x="27" y="0" width="8" height="8" rx="0.5"/><rect x="36" y="0" width="8" height="8" rx="0.5"/><rect x="45" y="0" width="8" height="8" rx="0.5"/>
<rect x="0" y="9" width="8" height="8" rx="0.5"/><rect x="9" y="9" width="8" height="8" rx="0.5"/><rect x="36" y="9" width="8" height="8" rx="0.5"/><rect x="45" y="9" width="8" height="8" rx="0.5"/>
<rect x="0" y="18" width="8" height="8" rx="0.5"/><rect x="9" y="18" width="8" height="8" rx="0.5"/>
<rect x="0" y="27" width="8" height="8" rx="0.5"/><rect x="9" y="27" width="8" height="8" rx="0.5"/>
<rect x="0" y="36" width="8" height="8" rx="0.5"/><rect x="9" y="36" width="8" height="8" rx="0.5"/><rect x="18" y="36" width="8" height="8" rx="0.5"/><rect x="27" y="36" width="8" height="8" rx="0.5"/><rect x="36" y="36" width="8" height="8" rx="0.5"/>
<rect x="0" y="45" width="8" height="8" rx="0.5"/><rect x="9" y="45" width="8" height="8" rx="0.5"/>
<rect x="0" y="54" width="8" height="8" rx="0.5"/><rect x="9" y="54" width="8" height="8" rx="0.5"/>
<rect x="0" y="63" width="8" height="8" rx="0.5"/><rect x="9" y="63" width="8" height="8" rx="0.5"/><rect x="36" y="63" width="8" height="8" rx="0.5"/><rect x="45" y="63" width="8" height="8" rx="0.5"/>
<rect x="0" y="72" width="8" height="8" rx="0.5"/><rect x="9" y="72" width="8" height="8" rx="0.5"/><rect x="18" y="72" width="8" height="8" rx="0.5"/><rect x="27" y="72" width="8" height="8" rx="0.5"/><rect x="36" y="72" width="8" height="8" rx="0.5"/><rect x="45" y="72" width="8" height="8" rx="0.5"/>
</g>



<!-- Bright mortar lines for texture -->
<g opacity="0.15">
<line x1="0" y1="4" x2="520" y2="4" stroke="#fff" stroke-width="0.5"/>
<line x1="0" y1="13" x2="520" y2="13" stroke="#fff" stroke-width="0.5"/>
<line x1="0" y1="22" x2="520" y2="22" stroke="#fff" stroke-width="0.5"/>
<line x1="0" y1="31" x2="520" y2="31" stroke="#fff" stroke-width="0.5"/>
<line x1="0" y1="40" x2="520" y2="40" stroke="#fff" stroke-width="0.5"/>
<line x1="0" y1="49" x2="520" y2="49" stroke="#fff" stroke-width="0.5"/>
<line x1="0" y1="58" x2="520" y2="58" stroke="#fff" stroke-width="0.5"/>
<line x1="0" y1="67" x2="520" y2="67" stroke="#fff" stroke-width="0.5"/>
<line x1="0" y1="76" x2="520" y2="76" stroke="#fff" stroke-width="0.5"/>
</g>
</g>
</svg>